<mxfile host="app.diagrams.net" modified="2023-12-08T16:30:40.711Z" agent="Mozilla/5.0 (Windows NT 10.0; Win64; x64) AppleWebKit/537.36 (KHTML, like Gecko) Chrome/119.0.0.0 Safari/537.36" etag="6ZilqlE7mhi5nUKTpnvo" version="22.1.7" type="github">
  <diagram name="Sayfa -1" id="u6-kvZdmUrV4d946Ifp6">
    <mxGraphModel dx="2261" dy="790" grid="1" gridSize="10" guides="1" tooltips="1" connect="1" arrows="1" fold="1" page="1" pageScale="1" pageWidth="827" pageHeight="1169" math="0" shadow="0">
      <root>
        <mxCell id="0" />
        <mxCell id="1" parent="0" />
        <mxCell id="3aEWK3oNmUjFzMs-tNoS-6" value="University" style="swimlane;fontStyle=1;align=center;verticalAlign=top;childLayout=stackLayout;horizontal=1;startSize=26;horizontalStack=0;resizeParent=1;resizeParentMax=0;resizeLast=0;collapsible=1;marginBottom=0;whiteSpace=wrap;html=1;" vertex="1" parent="1">
          <mxGeometry x="280" y="50" width="150" height="100" as="geometry" />
        </mxCell>
        <mxCell id="3aEWK3oNmUjFzMs-tNoS-7" value="&lt;br&gt;&lt;br&gt;" style="text;strokeColor=none;fillColor=none;align=left;verticalAlign=top;spacingLeft=4;spacingRight=4;overflow=hidden;rotatable=0;points=[[0,0.5],[1,0.5]];portConstraint=eastwest;whiteSpace=wrap;html=1;" vertex="1" parent="3aEWK3oNmUjFzMs-tNoS-6">
          <mxGeometry y="26" width="150" height="74" as="geometry" />
        </mxCell>
        <mxCell id="3aEWK3oNmUjFzMs-tNoS-10" value="Department" style="swimlane;whiteSpace=wrap;html=1;" vertex="1" parent="1">
          <mxGeometry x="610" y="170" width="160" height="100" as="geometry" />
        </mxCell>
        <mxCell id="3aEWK3oNmUjFzMs-tNoS-11" value="Office" style="swimlane;whiteSpace=wrap;html=1;" vertex="1" parent="1">
          <mxGeometry x="414" y="328" width="140" height="100" as="geometry" />
        </mxCell>
        <mxCell id="3aEWK3oNmUjFzMs-tNoS-12" value="Class" style="swimlane;whiteSpace=wrap;html=1;" vertex="1" parent="1">
          <mxGeometry x="-50" y="170" width="130" height="90" as="geometry" />
        </mxCell>
        <mxCell id="3aEWK3oNmUjFzMs-tNoS-14" value="Professor" style="swimlane;whiteSpace=wrap;html=1;" vertex="1" parent="1">
          <mxGeometry x="10" y="468" width="130" height="90" as="geometry" />
        </mxCell>
        <mxCell id="3aEWK3oNmUjFzMs-tNoS-15" value="Officer" style="swimlane;whiteSpace=wrap;html=1;startSize=20;" vertex="1" parent="1">
          <mxGeometry x="190" y="468" width="130" height="90" as="geometry" />
        </mxCell>
        <mxCell id="3aEWK3oNmUjFzMs-tNoS-16" value="Worker" style="swimlane;whiteSpace=wrap;html=1;" vertex="1" parent="1">
          <mxGeometry x="90" y="328" width="130" height="90" as="geometry" />
        </mxCell>
        <mxCell id="3aEWK3oNmUjFzMs-tNoS-24" value="Extends" style="endArrow=block;endSize=16;endFill=0;html=1;rounded=0;exitX=0.5;exitY=0;exitDx=0;exitDy=0;entryX=0.5;entryY=1;entryDx=0;entryDy=0;" edge="1" parent="1" source="3aEWK3oNmUjFzMs-tNoS-15" target="3aEWK3oNmUjFzMs-tNoS-16">
          <mxGeometry width="160" relative="1" as="geometry">
            <mxPoint x="210" y="298" as="sourcePoint" />
            <mxPoint x="370" y="298" as="targetPoint" />
            <Array as="points">
              <mxPoint x="255" y="448" />
              <mxPoint x="155" y="448" />
            </Array>
          </mxGeometry>
        </mxCell>
        <mxCell id="3aEWK3oNmUjFzMs-tNoS-25" value="Extends" style="endArrow=block;endSize=16;endFill=0;html=1;rounded=0;exitX=0.5;exitY=0;exitDx=0;exitDy=0;entryX=0.25;entryY=1;entryDx=0;entryDy=0;" edge="1" parent="1" source="3aEWK3oNmUjFzMs-tNoS-14" target="3aEWK3oNmUjFzMs-tNoS-16">
          <mxGeometry width="160" relative="1" as="geometry">
            <mxPoint x="265" y="478" as="sourcePoint" />
            <mxPoint x="165" y="428" as="targetPoint" />
            <Array as="points">
              <mxPoint x="75" y="448" />
              <mxPoint x="123" y="448" />
            </Array>
          </mxGeometry>
        </mxCell>
        <mxCell id="3aEWK3oNmUjFzMs-tNoS-31" value="" style="endArrow=diamondThin;endFill=1;endSize=24;html=1;rounded=0;exitX=0.5;exitY=0;exitDx=0;exitDy=0;entryX=1;entryY=0.5;entryDx=0;entryDy=0;" edge="1" parent="1" source="3aEWK3oNmUjFzMs-tNoS-10" target="3aEWK3oNmUjFzMs-tNoS-7">
          <mxGeometry width="160" relative="1" as="geometry">
            <mxPoint x="330" y="410" as="sourcePoint" />
            <mxPoint x="490" y="410" as="targetPoint" />
          </mxGeometry>
        </mxCell>
        <mxCell id="3aEWK3oNmUjFzMs-tNoS-33" value="1..*" style="text;html=1;align=center;verticalAlign=middle;resizable=0;points=[];autosize=1;strokeColor=none;fillColor=none;" vertex="1" parent="1">
          <mxGeometry x="660" y="138" width="40" height="30" as="geometry" />
        </mxCell>
        <mxCell id="3aEWK3oNmUjFzMs-tNoS-34" value="1" style="text;html=1;align=center;verticalAlign=middle;resizable=0;points=[];autosize=1;strokeColor=none;fillColor=none;" vertex="1" parent="1">
          <mxGeometry x="440" y="85" width="30" height="30" as="geometry" />
        </mxCell>
        <mxCell id="3aEWK3oNmUjFzMs-tNoS-35" value="" style="endArrow=diamondThin;endFill=1;endSize=24;html=1;rounded=0;exitX=0.5;exitY=0;exitDx=0;exitDy=0;entryX=0;entryY=0.5;entryDx=0;entryDy=0;" edge="1" parent="1" source="3aEWK3oNmUjFzMs-tNoS-12" target="3aEWK3oNmUjFzMs-tNoS-7">
          <mxGeometry width="160" relative="1" as="geometry">
            <mxPoint x="330" y="410" as="sourcePoint" />
            <mxPoint x="490" y="410" as="targetPoint" />
          </mxGeometry>
        </mxCell>
        <mxCell id="3aEWK3oNmUjFzMs-tNoS-36" value="1" style="text;html=1;align=center;verticalAlign=middle;resizable=0;points=[];autosize=1;strokeColor=none;fillColor=none;" vertex="1" parent="1">
          <mxGeometry x="245" y="78" width="30" height="30" as="geometry" />
        </mxCell>
        <mxCell id="3aEWK3oNmUjFzMs-tNoS-37" value="1..*" style="text;html=1;align=center;verticalAlign=middle;resizable=0;points=[];autosize=1;strokeColor=none;fillColor=none;" vertex="1" parent="1">
          <mxGeometry x="-10" y="138" width="40" height="30" as="geometry" />
        </mxCell>
        <mxCell id="3aEWK3oNmUjFzMs-tNoS-38" value="" style="endArrow=diamondThin;endFill=1;endSize=24;html=1;rounded=0;exitX=0.5;exitY=0;exitDx=0;exitDy=0;entryX=0.527;entryY=1.014;entryDx=0;entryDy=0;entryPerimeter=0;" edge="1" parent="1" source="3aEWK3oNmUjFzMs-tNoS-16" target="3aEWK3oNmUjFzMs-tNoS-7">
          <mxGeometry width="160" relative="1" as="geometry">
            <mxPoint x="330" y="410" as="sourcePoint" />
            <mxPoint x="490" y="410" as="targetPoint" />
          </mxGeometry>
        </mxCell>
        <mxCell id="3aEWK3oNmUjFzMs-tNoS-39" value="1" style="text;html=1;align=center;verticalAlign=middle;resizable=0;points=[];autosize=1;strokeColor=none;fillColor=none;" vertex="1" parent="1">
          <mxGeometry x="310" y="150" width="30" height="30" as="geometry" />
        </mxCell>
        <mxCell id="3aEWK3oNmUjFzMs-tNoS-40" value="1..*" style="text;html=1;align=center;verticalAlign=middle;resizable=0;points=[];autosize=1;strokeColor=none;fillColor=none;" vertex="1" parent="1">
          <mxGeometry x="135" y="298" width="40" height="30" as="geometry" />
        </mxCell>
        <mxCell id="3aEWK3oNmUjFzMs-tNoS-44" value="" style="endArrow=none;html=1;rounded=0;entryX=0;entryY=0.5;entryDx=0;entryDy=0;" edge="1" parent="1" target="3aEWK3oNmUjFzMs-tNoS-11">
          <mxGeometry width="50" height="50" relative="1" as="geometry">
            <mxPoint x="220" y="378" as="sourcePoint" />
            <mxPoint x="270" y="328" as="targetPoint" />
          </mxGeometry>
        </mxCell>
        <mxCell id="3aEWK3oNmUjFzMs-tNoS-45" value="1..*" style="text;html=1;align=center;verticalAlign=middle;resizable=0;points=[];autosize=1;strokeColor=none;fillColor=none;" vertex="1" parent="1">
          <mxGeometry x="210" y="348" width="40" height="30" as="geometry" />
        </mxCell>
        <mxCell id="3aEWK3oNmUjFzMs-tNoS-46" value="1&lt;br&gt;" style="text;html=1;align=center;verticalAlign=middle;resizable=0;points=[];autosize=1;strokeColor=none;fillColor=none;" vertex="1" parent="1">
          <mxGeometry x="384" y="348" width="30" height="30" as="geometry" />
        </mxCell>
        <mxCell id="3aEWK3oNmUjFzMs-tNoS-47" value="" style="endArrow=diamondThin;endFill=1;endSize=24;html=1;rounded=0;exitX=1;exitY=0.5;exitDx=0;exitDy=0;entryX=0.5;entryY=1;entryDx=0;entryDy=0;" edge="1" parent="1" source="3aEWK3oNmUjFzMs-tNoS-11" target="3aEWK3oNmUjFzMs-tNoS-10">
          <mxGeometry width="160" relative="1" as="geometry">
            <mxPoint x="330" y="410" as="sourcePoint" />
            <mxPoint x="490" y="410" as="targetPoint" />
          </mxGeometry>
        </mxCell>
      </root>
    </mxGraphModel>
  </diagram>
</mxfile>
